<?xml version="1.0" encoding="utf-8"?>
<svg xmlns="http://www.w3.org/2000/svg" viewBox="0 0 500 500">
  <path style="fill: none; stroke: rgb(0, 0, 0); stroke-width: 24px;" d="M 72.074 315.465 C 124.099 315.465 175.343 302.685 228.416 305.284 C 234.362 305.575 240.263 306.484 246.166 307.257 C 272.859 310.753 250.809 325.367 267.938 333.932 C 282.684 341.305 313.848 320.122 327.321 316.97 C 331.54 315.983 345.385 313.039 350.222 315.457 C 354.832 317.762 354.107 324.679 360.468 324.679 C 394.34 324.679 416.445 319.279 450.84 312.396"/>
  <g transform="matrix(-2.883855, 2.801625, -3.33449, -2.907176, 230.319427, 204.691895)" style="transform-origin: 63.4745px 13.1656px;">
    <path d="m -1324.1009,-1218.2462 0.1747,21.6068 c 0,0 -15.1948,2.5157 -12.9942,-9.7383 2.2006,-12.254 12.8195,-11.8685 12.8195,-11.8685 z" fill="#fcc2bc" paint-order="fill markers stroke" transform="translate(-32.543723,-171.18542) translate(1370.651,1392.5805)"/>
    <path d="m -1324.555,-1218.7534 0.489,22.3371 6.0779,-0.5477 -0.9431,-22.1749 z" fill="#bbbcbf" paint-order="fill markers stroke" transform="translate(-32.543723,-171.18542) translate(1370.651,1392.5805)"/>
    <path d="m -1318.9661,-1218.6114 0.4191,20.5315 76.7772,-0.6695 -1.6418,-10.2658 -2.5499,-4.2402 -0.5589,-6.4313 -73.0396,0.9941 z" paint-order="fill markers stroke" transform="translate(-32.543723,-171.18542) translate(1370.651,1392.5805)" style="fill: rgb(255, 255, 255);"/>
    <path d="m -1245.1581,-1218.3477 c -1.502,2.8404 -2.026,4.1591 0.1747,5.9444 2.2006,1.7854 2.969,3.5707 2.969,3.5707 0,0 -1.8164,5.3764 -0.4541,7.8921 1.3623,2.5157 19.0022,-4.2605 19.0022,-4.2605 l -1.1178,-6.6342 z" fill="#f3e1ce" paint-order="fill markers stroke" transform="translate(-32.543723,-171.18542) translate(1370.651,1392.5805)"/>
    <path d="M 1585.227 375.269 C 1539.815 376.417 1530.1 374.82 1516.579 376.204 C 1498.429 376.312 1472.445 368.09 1469.207 333.522 C 1470.847 296.956 1486.26 278.967 1524.411 277.79 C 1561.446 279.321 1594.134 279.142 1631.179 277.903 C 1684.139 278.874 1756.56 275.854 1790.836 276.935 C 1803.351 278.358 1837.868 286.011 1849.289 289.878 C 1883.907 299.32 1913.661 304.838 1944.824 318.718 C 1955.857 325.677 1945.19 325.221 1939.112 328.653 C 1901.456 339.05 1864.682 369.688 1848.832 370.279 C 1762.466 370.178 1664.311 373.34 1585.227 375.269 Z M 1822.504 347.415 C 1818.932 343.42 1818.208 343.2 1809.257 343.377 C 1735.692 342.158 1666.081 348.168 1593.646 346.814 C 1589.653 347.95 1574.538 345.439 1569.835 345.007 C 1564.091 344.018 1559.103 341.618 1560.025 338.026 C 1560.688 335.441 1567.682 337.13 1586.731 334.655 C 1598.081 333.18 1625.411 335.773 1634.372 335.328 C 1698.721 333.313 1739.815 329.455 1802.544 329.701 C 1809.513 328.886 1823.03 332.419 1820.101 322.92 C 1818.871 321.159 1805.375 320.91 1772.014 322.035 C 1755.231 322.602 1737.229 323.078 1732.01 323.095 C 1705.278 323.18 1650.889 322.99 1641.041 322.778 C 1638.1 322.715 1622.384 323.053 1606.119 323.53 C 1587.126 322.493 1571.201 324.358 1554.014 321.551 C 1554.302 335.855 1551.963 348.733 1553.013 358.323 C 1553.777 358.997 1598.037 357.887 1643.575 356.05 C 1686.135 353.852 1729.599 355.02 1768.344 354.371 C 1781.552 354.147 1792.589 354.159 1792.871 354.396 C 1806.336 354.852 1833.943 360.272 1822.503 347.415 L 1822.504 347.415 Z M 1857.424 347.366 C 1868.052 344.134 1878 335.451 1887.669 332.847 C 1895.503 329.253 1886.364 311.35 1881.682 310.509 C 1868.381 311.289 1831.319 293.11 1825.116 298.615 C 1821.202 302.728 1821.585 306.424 1826.468 311.647 C 1832.12 319.043 1855.335 316.973 1859.606 323.771 C 1872.174 332.143 1839.313 328.065 1835.714 335.435 C 1832.635 341.741 1844.973 342.13 1847.519 345.94 C 1851.016 351.175 1851.373 351.226 1857.424 347.366 Z M 1517.614 357.877 C 1517.604 336.718 1516.324 316.576 1514.663 295.764 C 1508.096 297.941 1500.711 302.377 1496.123 307.217 C 1477.472 326.893 1486.105 369.416 1517.614 357.877 Z M 1537.104 344.606 C 1537.194 334.874 1537.244 293.639 1530.82 293.573 C 1531.763 293.968 1531.058 364.932 1535.041 358.772 C 1535.856 358.727 1536.545 349.962 1537.104 344.606 Z M 1810.428 296.795 C 1721.223 291.267 1645.77 298.191 1563.108 296.402 L 1550.74 296.117 C 1551.397 302.639 1552.487 310.894 1557.406 310.687 C 1625.985 306.898 1702.859 310.027 1764.789 307.682 C 1778.02 306.461 1793.018 306.995 1805.511 307.198 C 1810.884 306.927 1811.319 302.054 1810.428 296.795 Z" fill="#030303" transform="translate(-32.543723,-171.18542) translate(1370.651,1392.5805) matrix(0.26458333,0,0,0.26458333,-1727.1818,-1294.6046)"/>
  </g>
  <path style="fill: none; stroke: rgb(0, 0, 0); stroke-width: 24px;" d="M 112.965 398.582 C 83.891 398.582 66.857 396.287 46.487 424.436 C 44.046 427.81 33.308 440.903 36.377 447.042 C 37.5 449.288 70.38 441.379 73.174 440.826 C 76.895 440.09 87.407 435.654 84.004 437.332 C 67.174 445.631 84.692 461.088 96.011 462.318 C 126.804 465.665 157.389 447.442 185.179 447.442 C 191.892 447.442 205.73 454.809 214.175 455.542 C 243.991 458.132 282.762 449.618 311.499 443.572 C 318.672 442.062 348.821 432.283 356.77 435.171 C 361.353 436.836 360.926 445.741 365.695 446.761 C 388.205 451.577 413.631 448.214 434.066 448.214"/>
</svg>